<?xml version="1.0" encoding="UTF-8"?>
<svg width="121px" height="120px" viewBox="0 0 121 120" version="1.1" xmlns="http://www.w3.org/2000/svg" xmlns:xlink="http://www.w3.org/1999/xlink">
    <!-- Generator: Sketch 46.2 (44496) - http://www.bohemiancoding.com/sketch -->
    <title>circleLogo_dasani</title>
    <desc>Created with Sketch.</desc>
    <defs>
        <polygon id="path-1" points="0.000465384615 0.00612658228 121 0.00612658228 121 119.468201 0.000465384615 119.468201"></polygon>
    </defs>
    <g id="productFacts/homePage" stroke="none" stroke-width="1" fill="none" fill-rule="evenodd">
        <g id="desktop/homePage/browseBrands" transform="translate(-1220.000000, -733.000000)">
            <g id="brand-circles" transform="translate(101.000000, 732.000000)">
                <g id="circleLogo_dasani" transform="translate(1119.000000, 0.000000)">
                    <g id="Group-3" transform="translate(0.000000, 1.525519)">
                        <mask id="mask-2" fill="white">
                            <use xlink:href="#path-1"></use>
                        </mask>
                        <g id="Clip-2"></g>
                        <path d="M121.000465,59.738619 C121.000465,26.7485051 93.9088756,0.00597341772 60.5004654,0.00597341772 C27.0874013,0.00597341772 0.000465384615,26.7485051 0.000465384615,59.738619 C0.000465384615,92.7256696 27.0874013,119.468201 60.5004654,119.468201 C93.9088756,119.468201 121.000465,92.7256696 121.000465,59.738619" id="Fill-1" fill="#1D3D94" mask="url(#mask-2)"></path>
                    </g>
                    <path d="M68.3825295,63.9356342 L65.5716064,55.8408873 L62.7932603,64.6601025 C64.6470423,63.5665076 66.6388885,63.6093937 68.3825295,63.9356342 L68.3825295,63.9356342 Z M73.3404269,66.4521278 L74.7164141,70.4160266 L70.634991,70.4160266 L69.1131833,66.0263304 C67.6472218,65.669457 65.9175423,65.4841278 64.7525295,65.4841278 C63.7705679,65.4841278 62.9964782,65.7062165 62.3883756,65.9482165 L60.976709,70.4160266 L59.2361705,70.4160266 L64.6625551,53.2079886 L64.0792731,51.5262418 L68.1575936,51.5262418 L72.713709,64.6478494 C75.2050679,64.9679633 76.9626705,64.6815456 77.6576449,63.5297481 C77.4683885,64.8331785 76.0520679,66.2928367 73.3404269,66.4521278 L73.3404269,66.4521278 Z M38.5777474,63.9356342 L35.7652731,55.8408873 L32.9884782,64.6601025 C34.8438115,63.5665076 36.8325551,63.6093937 38.5777474,63.9356342 L38.5777474,63.9356342 Z M43.5325423,66.4521278 L44.9085295,70.4144949 L40.8271064,70.4144949 L39.3084013,66.0263304 C37.8408885,65.669457 36.1143115,65.4841278 34.9461962,65.4841278 C33.9642346,65.4841278 33.1901449,65.7062165 32.5789397,65.9482165 L31.1703756,70.4144949 L29.4329397,70.4144949 L34.8531192,53.2079886 L34.2729397,51.5262418 L38.3590167,51.5262418 L42.9151321,64.6478494 C45.4033885,64.9679633 47.1563372,64.6815456 47.8528628,63.5297481 C47.6651577,64.8331785 46.2488372,66.2928367 43.5325423,66.4521278 L43.5325423,66.4521278 Z M56.2173756,67.5181532 C56.0374269,64.9465203 54.7188372,62.2446975 53.4390295,59.6271152 C52.3190038,57.3235203 51.2532731,55.1439886 51.1229654,53.2876342 C50.9011321,50.1646089 53.6205295,46.7796722 55.9862346,45.1653177 C55.9738244,45.0458494 55.9722731,44.9723304 55.9598628,44.7900646 C50.9290551,46.9236468 47.8776833,51.6503051 48.1460551,55.4962671 C48.3275551,58.0663684 49.6539013,60.7712544 50.9259526,63.3842418 C52.0537346,65.6909 53.1148115,67.8704316 53.2482218,69.7283177 C53.3552603,71.2875329 53.0232859,72.8436848 52.2864269,74.2252291 C51.8722346,74.9941152 51.2051833,75.7093937 50.3752474,76.4292671 C50.6389654,76.4078241 50.8685551,76.3925076 50.9290551,76.3848494 C54.4365038,74.428938 56.4640295,71.0424696 56.2173756,67.5181532 L56.2173756,67.5181532 Z M93.6172346,51.5262418 L92.0007987,51.5262418 L92.0007987,63.3811785 L83.5478628,51.5262418 L79.0429397,51.5262418 L80.3134397,53.3167354 L80.3134397,70.4160266 L81.9314269,70.4160266 L81.9314269,55.5835709 L93.6172346,72.0380392 L93.6172346,51.5262418 Z M23.6745808,60.9719 C23.6745808,56.4198494 20.7488628,52.7255203 17.3158756,52.7255203 L16.9094397,52.7255203 L16.9094397,69.2182797 L17.3158756,69.2182797 C20.7488628,69.2182797 23.6745808,65.5193557 23.6745808,60.9719 L23.6745808,60.9719 Z M13.3616577,70.435938 L13.3616577,51.5063304 L17.0971449,51.5063304 C22.6522859,51.5063304 27.2999269,55.7459253 27.2999269,60.9719 C27.2999269,66.1994063 22.6522859,70.435938 17.0971449,70.435938 L13.3616577,70.435938 Z M99.8378756,70.4160266 L103.740901,70.4160266 L103.740901,51.5262418 L99.8378756,51.5262418 L99.8378756,70.4160266 Z" id="Fill-4" fill="#FFFFFF"></path>
                    <path d="M106.296483,75.4961886 C106.212714,75.4502392 106.08706,75.4272646 105.907112,75.4272646 L105.635637,75.4272646 L105.635637,76.073619 L105.927278,76.073619 C106.060688,76.073619 106.161522,76.0583025 106.228227,76.0353278 C106.353881,75.9878468 106.415932,75.8928848 106.415932,75.7535051 C106.415932,75.6263785 106.37715,75.5390747 106.296483,75.4961886 L106.296483,75.4961886 Z M105.958304,75.2128342 C106.178586,75.2128342 106.344573,75.2327456 106.448509,75.2771633 C106.634663,75.3522139 106.730842,75.5038468 106.730842,75.7259354 C106.730842,75.8867582 106.670342,76.0031633 106.550894,76.0797456 C106.48574,76.1195684 106.401971,76.1486696 106.296483,76.1655177 C106.431445,76.1869608 106.533829,76.2436316 106.598983,76.3385937 C106.659483,76.4335557 106.696714,76.5239228 106.696714,76.6142899 L106.696714,76.7444797 C106.696714,76.7873658 106.696714,76.8317835 106.701368,76.8762013 C106.701368,76.9267456 106.709124,76.9558468 106.713778,76.9711633 L106.730842,76.9910747 L106.423688,76.9910747 L106.423688,76.9757582 C106.415932,76.9711633 106.415932,76.9619734 106.414381,76.9558468 L106.408176,76.8976443 L106.408176,76.7582646 C106.408176,76.5530241 106.352329,76.4182392 106.240637,76.3493152 C106.170829,76.3064291 106.052932,76.289581 105.886945,76.289581 L105.635637,76.289581 L105.635637,76.9910747 L105.320727,76.9910747 L105.320727,75.2128342 L105.958304,75.2128342 Z M104.980996,75.1148089 C104.700214,75.3889734 104.560599,75.7198089 104.560599,76.1073152 C104.560599,76.4963532 104.700214,76.8317835 104.980996,77.1044165 C105.255573,77.3801127 105.59065,77.5164291 105.992432,77.5164291 C106.383355,77.5164291 106.721535,77.3801127 107.000765,77.1044165 C107.275342,76.8317835 107.416509,76.4963532 107.416509,76.1073152 C107.416509,75.7198089 107.275342,75.3889734 107.000765,75.1148089 C106.719983,74.8391127 106.380253,74.7027962 105.992432,74.7027962 C105.596855,74.7027962 105.258676,74.8391127 104.980996,75.1148089 L104.980996,75.1148089 Z M107.152791,77.2529861 C106.828573,77.5731 106.442304,77.7354544 105.986227,77.7354544 C105.527047,77.7354544 105.142329,77.5731 104.822765,77.2529861 C104.504753,76.9389987 104.341868,76.5545557 104.341868,76.1027203 C104.341868,75.658543 104.504753,75.2771633 104.828971,74.9601127 C105.145432,74.6415304 105.533253,74.4868342 105.986227,74.4868342 C106.442304,74.4868342 106.828573,74.6415304 107.152791,74.9601127 C107.473906,75.2771633 107.636791,75.658543 107.636791,76.1027203 C107.636791,76.5530241 107.473906,76.9389987 107.152791,77.2529861 L107.152791,77.2529861 Z" id="Fill-6" fill="#FFFFFF"></path>
                </g>
            </g>
        </g>
    </g>
</svg>