<?xml version="1.0" encoding="UTF-8"?>
<svg width="120px" height="121px" viewBox="0 0 120 121" version="1.1" xmlns="http://www.w3.org/2000/svg" xmlns:xlink="http://www.w3.org/1999/xlink">
    <!-- Generator: Sketch 46.2 (44496) - http://www.bohemiancoding.com/sketch -->
    <title>circleLogo_powerade</title>
    <desc>Created with Sketch.</desc>
    <defs>
        <polygon id="path-1" points="0.00062371134 0 119.752577 0 119.752577 120.999496 0.00062371134 120.999496"></polygon>
        <polygon id="path-3" points="0 121 119.752577 121 119.752577 0 0 0"></polygon>
    </defs>
    <g id="productFacts/homePage" stroke="none" stroke-width="1" fill="none" fill-rule="evenodd">
        <g id="desktop/homePage/browseBrands" transform="translate(-261.000000, -878.000000)">
            <g id="brand-circles" transform="translate(101.000000, 732.000000)">
                <g id="circleLogo_powerade" transform="translate(160.000000, 146.000000)">
                    <g id="Group-3">
                        <mask id="mask-2" fill="white">
                            <use xlink:href="#path-1"></use>
                        </mask>
                        <g id="Clip-2"></g>
                        <path d="M119.753201,60.4994958 C119.753201,93.9131417 92.9460876,120.999496 59.8769124,120.999496 C26.8064897,120.999496 0.00062371134,93.9131417 0.00062371134,60.4994958 C0.00062371134,27.0871104 26.8064897,-0.000504166667 59.8769124,-0.000504166667 C92.9460876,-0.000504166667 119.753201,27.0871104 119.753201,60.4994958" id="Fill-1" fill="#000000" mask="url(#mask-2)"></path>
                    </g>
                    <path d="M71.9710495,55.0252542 L62.0053897,55.0252542 L62.0053897,65.9921396 L64.5376577,65.9921396 L64.5376577,57.5839 L71.825101,57.5839 C72.2878948,57.5839 72.518668,57.9607646 72.518668,58.7170146 C72.518668,59.4707437 72.2878948,59.8513896 71.825101,59.8513896 L65.291101,59.8513896 L70.7236268,65.9921396 L74.1914619,65.9921396 L70.9993072,62.408775 L71.9710495,62.408775 C72.9415443,62.408775 73.7099567,62.0230875 74.277534,61.2542333 C74.7964619,60.5584833 75.0559258,59.7114833 75.0559258,58.7170146 C75.0559258,57.7212854 74.7964619,56.8755458 74.277534,56.177275 C73.7099567,55.4096812 72.9415443,55.0252542 71.9710495,55.0252542 L71.9710495,55.0252542 Z M49.9178639,65.9921396 L60.9226268,65.9921396 L60.9226268,63.4334937 L52.4551216,63.4334937 L52.4551216,61.7911708 L60.3538021,61.7911708 L60.3538021,59.2274833 L52.4551216,59.2274833 L52.4551216,57.5839 L60.9400907,57.5839 L60.9400907,55.0252542 L49.9178639,55.0252542 L49.9178639,65.9921396 Z M98.8929258,62.5159104 C98.8929258,63.1284729 98.5685959,63.4334937 97.9199361,63.4334937 L92.0445753,63.4334937 L92.0445753,57.5839 L97.9199361,57.5839 C98.5685959,57.5839 98.8929258,57.8927021 98.8929258,58.5002229 L98.8929258,62.5159104 Z M97.9024722,55.0252542 L89.5085649,55.0252542 L89.5085649,65.9921396 L97.9024722,65.9921396 C98.8854412,65.9921396 99.7212144,65.6656917 100.409792,65.0039729 C101.090885,64.344775 101.433926,63.5154208 101.433926,62.5234729 L101.433926,58.4951812 C101.433926,57.5044937 101.090885,56.6738792 100.409792,56.0146812 C99.7212144,55.3542229 98.8854412,55.0252542 97.9024722,55.0252542 L97.9024722,55.0252542 Z M113.328101,57.5839 L113.328101,55.0252542 L102.307122,55.0252542 L102.307122,65.9921396 L113.311885,65.9921396 L113.311885,63.4334937 L104.845627,63.4334937 L104.845627,61.7911708 L112.74306,61.7911708 L112.74306,59.2274833 L104.845627,59.2274833 L104.845627,57.5839 L113.328101,57.5839 Z M85.9945753,59.4190667 L78.3104515,59.4190667 L78.3104515,57.8813583 C78.3104515,57.3292958 78.4838433,57.0482229 78.8381113,57.0482229 L85.4444619,57.0482229 C85.813699,57.0482229 85.9945753,57.3292958 85.9945753,57.8813583 L85.9945753,59.4190667 Z M85.4444619,55.0252542 L78.8381113,55.0252542 C77.9337299,55.0252542 77.2027402,55.3567437 76.6289258,56.0285458 C76.0538639,56.6927854 75.7731938,57.4855875 75.7731938,58.4119937 L75.7731938,65.9921396 L78.3104515,65.9921396 L78.3104515,62.5133896 L85.9945753,62.5133896 L85.9945753,65.9921396 L88.5268433,65.9921396 L88.5268433,58.4119937 C88.5268433,57.4855875 88.2524103,56.6927854 87.6773485,56.0285458 C87.1060289,55.3567437 86.3575753,55.0252542 85.4444619,55.0252542 L85.4444619,55.0252542 Z M15.996699,55.0076083 L6.42397732,55.0076083 L6.42397732,65.948025 L8.95874021,65.948025 L8.95874021,57.5637333 L15.996699,57.5637333 C16.3684309,57.5637333 16.5443175,57.9443792 16.5443175,58.7132333 C16.5443175,59.4631812 16.3684309,59.8413062 15.996699,59.8413062 L9.64482268,59.8413062 L12.1583794,62.3961708 L15.996699,62.3961708 C16.9422454,62.3961708 17.6981835,62.0054417 18.2757402,61.2265042 C18.8108845,60.5269729 19.0790804,59.6887958 19.0790804,58.7132333 C19.0790804,57.7301083 18.8108845,56.8868896 18.2757402,56.177275 C17.6981835,55.3970771 16.9422454,55.0076083 15.996699,55.0076083 L15.996699,55.0076083 Z M30.0938227,62.5159104 C30.0938227,63.1284729 29.7545237,63.4334937 29.0784206,63.4334937 L23.2754103,63.4334937 C22.5993072,63.4334937 22.2612557,63.1284729 22.2612557,62.5159104 L22.2612557,58.5002229 C22.2612557,57.8927021 22.5993072,57.5839 23.2754103,57.5839 L29.0784206,57.5839 C29.7545237,57.5839 30.0938227,57.8927021 30.0938227,58.5002229 L30.0938227,62.5159104 Z M29.0784206,55.0252542 L23.2754103,55.0252542 C22.2862041,55.0252542 21.4479361,55.3542229 20.7593588,56.0146812 C20.0657918,56.6738792 19.7215031,57.5044937 19.7215031,58.4951812 L19.7215031,62.5234729 C19.7215031,63.5154208 20.0657918,64.344775 20.7593588,65.0039729 C21.4479361,65.6656917 22.2862041,65.9921396 23.2754103,65.9921396 L29.0784206,65.9921396 C30.0613897,65.9921396 30.9009052,65.6656917 31.5919773,65.0039729 C32.2867918,64.344775 32.6323278,63.5154208 32.6323278,62.5234729 L32.6323278,58.4951812 C32.6323278,57.5044937 32.2867918,56.6738792 31.5919773,56.0146812 C30.9009052,55.3542229 30.0613897,55.0252542 29.0784206,55.0252542 L29.0784206,55.0252542 Z M44.5888742,61.5769 L42.3272969,55.1084417 L42.3709567,55.0252542 L39.6228845,55.0252542 L37.3600598,61.5769 L35.0548227,55.0252542 L32.3504103,55.0252542 L36.259833,65.9921396 L38.4827402,65.9921396 L40.9962969,58.9060771 L43.5148433,65.9921396 L45.7115546,65.9921396 L49.6272144,55.0252542 L46.9377711,55.0252542 L44.5888742,61.5769 L44.5888742,61.5769 Z" id="Fill-4" fill="#FFFFFF"></path>
                    <mask id="mask-4" fill="white">
                        <use xlink:href="#path-3"></use>
                    </mask>
                    <g id="Clip-7"></g>
                    <polygon id="Fill-6" fill="#FFFFFF" mask="url(#mask-4)" points="107.202258 65.9878542 108.949897 65.9878542 108.949897 63.4266875 107.202258 63.4266875"></polygon>
                </g>
            </g>
        </g>
    </g>
</svg>