<?xml version="1.0" encoding="UTF-8"?>
<svg width="121px" height="121px" viewBox="0 0 121 121" version="1.1" xmlns="http://www.w3.org/2000/svg" xmlns:xlink="http://www.w3.org/1999/xlink">
    <!-- Generator: Sketch 46.2 (44496) - http://www.bohemiancoding.com/sketch -->
    <title>circleLogo_sprite</title>
    <desc>Created with Sketch.</desc>
    <defs>
        <polygon id="path-1" points="0 120.906923 0 0.00155128205 121 0.00155128205 121 120.906923"></polygon>
    </defs>
    <g id="productFacts/homePage" stroke="none" stroke-width="1" fill="none" fill-rule="evenodd">
        <g id="desktop/homePage/browseBrands" transform="translate(-421.000000, -733.000000)">
            <g id="brand-circles" transform="translate(101.000000, 732.000000)">
                <g id="circleLogo_sprite" transform="translate(320.000000, 1.000000)">
                    <g id="Group-3">
                        <mask id="mask-2" fill="white">
                            <use xlink:href="#path-1"></use>
                        </mask>
                        <g id="Clip-2"></g>
                        <path d="M121,60.5031026 C121,27.0884872 93.9099615,0.00155128205 60.5,0.00155128205 C27.0853846,0.00155128205 0,27.0884872 0,60.5031026 C0,93.9146154 27.0853846,121 60.5,121 C93.9099615,121 121,93.9146154 121,60.5031026" id="Fill-1" fill="#008B47" mask="url(#mask-2)"></path>
                    </g>
                    <path d="M89.0466923,45.3269103 L89.0435897,45.325359 C89.4252051,44.7653462 89.7168462,44.1169103 89.8750769,43.3459231 L89.9107564,42.9255256 L84.4517949,44.7622436 L85.2088205,36.4861538 L82.4909744,38.9976795 C82.4909744,38.9976795 81.1305,44.2348077 76.2206923,48.0695769 L75.8158077,50.7796667 L78.3521538,49.8954359 L75.9817949,66.0473846 L82.1776154,64.3704487 L83.0153077,57.6161667 C83.4636282,53.9985769 84.0081282,48.6063205 84.0981026,47.8803205 C86.7306282,47.0224615 88.2788077,46.4965769 89.0466923,45.3269103" id="Fill-4" fill="#FFFFFE"></path>
                    <path d="M97.4686026,63.4846667 C97.2979615,63.5048333 97.1583462,63.5265513 97.0326923,63.5544744 L96.5967821,64.8901282 L96.910141,64.8497949 L97.0652692,64.3704487 C97.1149103,64.3673462 97.1661026,64.3688974 97.2172949,64.3642436 C97.2328077,64.361141 97.2762436,64.3549359 97.2933077,64.3487308 L97.454641,64.7939487 L97.8160897,64.7536154 L97.5818462,64.261859 C97.7695513,64.1517179 97.8858974,64.0462308 97.9370897,63.8833462 C98.0146538,63.646 97.8936538,63.4334744 97.4686026,63.4846667 M97.6516538,63.877141 C97.6020128,64.0291667 97.4577436,64.1036282 97.2824487,64.1222436 C97.2390128,64.1284487 97.1924744,64.1284487 97.1490385,64.13 L97.2715897,63.7375256 C97.3274359,63.7235641 97.3863846,63.7189103 97.4406795,63.7127051 C97.5989103,63.6971923 97.6935385,63.7499359 97.6516538,63.877141" id="Fill-5" fill="#FFFFFE"></path>
                    <path d="M98.8042564,47.1636282 C98.8042564,46.2669872 98.5234744,45.5239231 98.0037949,45.0073462 C97.4887692,44.4876667 96.7395,44.2053333 95.832,44.2053333 C95.6722179,44.2053333 95.5062308,44.214641 95.337141,44.2332564 C93.2305,44.4519872 90.6817436,45.727141 88.5657949,47.9966667 L88.5626923,47.9951154 C86.7166667,49.9295641 85.5532051,52.2735513 84.9109744,54.7261282 C84.5836538,55.9780128 84.447141,57.0483974 84.4455897,57.9652051 C84.4455897,59.9523974 85.0971282,61.2120385 85.8541538,61.9737179 C86.2590385,62.3832564 86.6406538,62.6361154 87.1882564,62.8501923 C87.7808462,63.0968462 88.4122179,63.2085385 89.056,63.2085385 C91.8700256,63.2038846 94.9291538,61.0987949 96.5719615,58.8649487 C96.5735128,58.8633974 96.5750641,58.8633974 96.5766154,58.8602949 L96.5750641,58.8587436 C97.4018974,57.7992179 98.1403077,56.5519872 98.7235897,55.1186026 L98.7499615,55.0503462 L98.0751538,54.3041795 L97.9944872,54.4453462 C95.9809231,58.0288077 93.8153333,59.2558718 92.3990128,59.2512179 C92.2857692,59.2512179 92.1787308,59.2450128 92.0747949,59.2295 C90.992,59.0759231 90.2722051,57.9915769 90.266,56.2603462 C90.266,55.7949615 90.3187436,55.2892436 90.4319872,54.7447436 C91.3239744,49.9481795 92.636359,47.6274615 93.6059103,46.8812949 C93.8649744,46.6780769 94.0976667,46.5834487 94.2822692,46.585 C94.4125769,46.585 94.5258205,46.6268846 94.6344103,46.7215128 C94.792641,46.8564744 94.9105385,47.1481154 94.9089872,47.563859 C94.9105385,47.7748333 94.8702051,48.0152821 94.8128077,48.2852051 C94.3381154,50.6043718 93.1731026,52.6691282 91.4449744,54.3957051 C91.3038077,54.5275641 90.8275641,54.9107308 90.8182564,54.9184872 C90.8182564,54.9184872 90.7546538,54.9619231 90.6895,55.0162179 C90.6258974,55.0875769 90.5452308,55.1186026 90.5266154,55.2613205 C90.5219615,55.2923462 90.5390256,55.3435385 90.5716026,55.3714615 C90.6041795,55.4055897 90.6507179,55.4133462 90.678641,55.4133462 C90.7484487,55.4086923 90.7887821,55.3869744 90.8492821,55.3714615 C92.7899359,54.7726667 96.0507308,53.0755641 97.3041667,51.1225 C97.9634615,50.2723974 98.4738333,49.2888846 98.6987692,48.1626538 C98.7701282,47.8120641 98.8042564,47.4785385 98.8042564,47.1636282" id="Fill-6" fill="#FFFFFE"></path>
                    <path d="M97.415859,62.9168974 C96.6805513,62.8501923 96.0367692,63.3900385 95.9654103,64.1222436 C95.8987051,64.856 96.437,65.5028846 97.1723077,65.5695897 C97.9045128,65.6331923 98.5545,65.0948974 98.6196538,64.361141 C98.686359,63.6289359 98.1480641,62.9820513 97.415859,62.9168974 M97.1893718,65.3803333 C96.5611026,65.3229359 96.1003718,64.7691282 96.1562179,64.140859 C96.2136154,63.5094872 96.7705256,63.0487564 97.3987949,63.1046026 C98.0270641,63.1588974 98.4877949,63.7127051 98.4335,64.3456282 C98.373,64.9723462 97.817641,65.4346282 97.1893718,65.3803333" id="Fill-7" fill="#FFFFFE"></path>
                    <path d="M39.7826282,69.9116282 C39.7826282,66.8106154 37.9040256,64.7039744 35.7027564,62.9324103 C34.3857179,61.8744359 33.6985,60.6954615 33.7000513,59.6747179 C33.7000513,59.4016923 33.748141,59.1364231 33.8505256,58.8851154 C33.9916923,58.5329744 34.1840513,58.2320256 34.4151923,57.9729615 C34.8852308,57.5603205 36.0362821,56.9025769 37.2106026,56.820359 C37.3253974,56.8110513 37.438641,56.8079487 37.5487821,56.8048462 C37.5673974,56.8032949 37.5875641,56.8032949 37.5999744,56.8032949 C39.8229615,56.8032949 41.3975128,58.1684231 42.1529872,59.0138718 L42.3019103,59.1783077 L42.5594231,57.8953974 L43.4436538,53.482 L43.3459231,53.4540769 C42.218141,53.1221026 40.9600513,52.948359 39.6616282,52.948359 C37.0182436,52.948359 34.1964615,53.6588462 31.9238333,55.1837564 C31.9176282,55.1884103 31.9176282,55.1884103 31.9036667,55.1992692 C29.8233974,56.5519872 28.0952692,58.7020641 27.5709359,61.8961538 C27.4995769,62.3305128 27.4623462,62.749359 27.4623462,63.1542436 C27.4607949,65.229859 28.4210385,66.9192051 30.3539359,68.1679872 C31.9595128,69.2042436 33.6798846,70.5848846 33.6736795,72.5177821 C33.6736795,73.1724231 33.4813205,73.8999744 33.0097308,74.7128462 C32.6420769,75.3550769 31.8431667,76.1322692 31.1311282,76.4983718 C31.1218205,76.4999231 31.1032051,76.5076795 31.0892436,76.5169872 C30.2065641,77.0025385 29.1625513,77.2740128 28.0999231,77.2740128 C26.6929103,77.2740128 25.2548718,76.7993205 24.0929615,75.7227308 L23.9595513,75.6017308 L21.9041026,82.7577949 L22.0173462,82.7826154 C22.8395256,82.9672179 23.7144487,83.016859 24.5335256,83.0509872 C24.7227821,83.0602949 24.9166923,83.0633974 25.1106026,83.0633974 C27.9261795,83.0633974 31.0582179,82.1993333 33.6411026,80.4432821 C33.6426538,80.4401795 33.6457564,80.4401795 33.6473077,80.4386282 C33.6473077,80.4386282 33.6519615,80.4386282 33.6535128,80.4370769 C33.6643718,80.4339744 33.6721282,80.4293205 33.6798846,80.4215641 C33.687641,80.415359 33.6829872,80.4169103 33.6953974,80.4091538 C33.7062564,80.3998462 33.7217692,80.3889872 33.7419359,80.3719231 C34.3624487,79.9406667 34.9488333,79.4597692 35.4933333,78.9230256 L35.4886795,78.9199231 C37.0492692,77.4213846 38.3120128,75.5365769 39.1341923,73.276359 C39.5825128,72.0384359 39.7826282,70.9246154 39.7826282,69.9116282" id="Fill-8" fill="#FFFFFE"></path>
                    <path d="M55.3326795,65.2314103 C55.4862564,64.5752179 55.5638205,63.9190256 55.5638205,63.2861026 C55.5638205,61.9488974 55.2178846,60.7094231 54.4825769,59.7972692 C53.7472692,58.8835641 52.6225897,58.3126923 51.1085385,58.3126923 C50.3918462,58.3126923 49.5882821,58.4383462 48.6947436,58.7160256 L39.9905,61.7673974 L40.2449103,61.8821923 C41.2036026,62.3072436 41.4890385,63.2643846 41.492141,64.5472949 C41.492141,65.3679231 41.371141,66.3048974 41.2392821,67.2791026 L37.752,86.2497308 L43.7864872,81.9868077 L46.9014615,64.3456282 C47.1310513,63.1588974 47.5250769,62.3925641 47.9563333,61.952 C48.410859,61.5765897 48.7645513,61.5021282 49.0344744,61.5005769 C49.0608462,61.5005769 49.0856667,61.5005769 49.1073846,61.5021282 C49.7496154,61.5362564 50.2630897,62.0823077 50.3716795,62.9370641 C50.3918462,63.0999487 50.4259744,63.4567436 50.4259744,63.9624615 C50.4259744,64.9599359 50.2941154,66.5344872 49.6658462,68.3510385 C48.7164615,71.0952564 47.8989359,72.8094231 46.8673333,74.2676282 C46.8673333,74.2707308 46.8673333,74.2707308 46.8626795,74.2707308 C46.8502692,74.2908974 46.5105385,74.7035385 46.1677051,75.1161795 C46.0001667,75.3225 45.8310769,75.5303718 45.7054231,75.6823974 C45.6418205,75.7584103 45.5890769,75.8220128 45.5533974,75.867 C45.5347821,75.8902692 45.5192692,75.9073333 45.5099615,75.9181923 C45.5053077,75.9243974 45.5006538,75.9275 45.4991026,75.9306026 C45.4913462,75.938359 45.485141,75.9476667 45.4804872,75.9585256 C45.3548333,76.0965897 45.1128333,76.3215256 44.9266795,76.5200897 C44.8708333,76.5898974 44.8211923,76.5898974 44.8010256,76.7124487 C44.8010256,76.7403718 44.8072308,76.7605385 44.8149872,76.7791538 C44.8227436,76.824141 44.901859,76.8753333 44.9437436,76.8660256 C45.012,76.8629231 45.0383718,76.8427564 45.0880128,76.824141 C48.2309103,75.6498205 51.3660513,73.7681154 53.6169615,69.7735641 L53.6123077,69.7720128 C54.5911667,68.0159615 55.0689615,66.3653974 55.3326795,65.2314103" id="Fill-9" fill="#FFFFFE"></path>
                    <path d="M68.0500897,51.8903846 C64.8854744,52.3014744 63.1030513,54.1040641 61.2415128,57.7030385 C61.0987949,57.2128333 60.3169487,55.8694231 58.7982436,55.1884103 L55.6956795,56.2743077 L55.9423333,56.4899359 C56.5659487,57.2872949 56.8296667,58.5934744 56.8281154,60.1463077 C56.8281154,61.0538077 56.7396923,62.0435256 56.5923205,63.0642692 C56.5256154,63.4551923 56.0385128,66.3452308 55.5653718,69.1344359 C55.0953333,71.9220897 54.6408077,74.6151154 54.6408077,74.6151154 L54.5430769,75.1828846 L60.6737436,71.9779359 L62.325859,61.4059487 C62.7772821,58.4755769 65.0685256,57.5556667 66.9812564,57.5556667 L68.0500897,51.8903846" id="Fill-10" fill="#FFFFFE"></path>
                    <polyline id="Fill-11" fill="#FFFFFE" points="66.2785256 69.4803718 66.4538205 69.4183205 72.368859 67.204641 75.3054359 48.7785128 69.3035256 51.5149744 66.2785256 69.4803718"></polyline>
                    <path d="M111.155564,35.6531154 C103.939,38.5819359 95.5201923,39.9486154 91.0587051,34.1018333 C89.0761667,31.4258718 88.0057821,27.3211795 87.7327564,21.7846538 C86.1659615,24.7026154 84.4905769,27.3723718 82.7035,29.7923718 L82.9811795,31.3948462 C84.2392692,29.7023974 85.3329231,28.0052949 86.262141,26.3562821 C86.5692949,29.0306923 87.0021026,31.1838718 88.3734359,33.7062564 C90.3854487,37.6480641 96.1825897,41.9792436 109.278513,37.2152564 C109.374692,37.0337564 109.506551,37.1330385 109.278513,37.2152564 C99.0695256,57.3198718 103.197487,65.3353462 103.521705,68.5527051 C64.1377564,69.6339487 47.4909487,84.7062051 35.6856923,93.7812051 C33.4099615,91.5458077 23.6818718,83.6451282 11.0280641,82.6724744 C16.1767692,76.3913333 25.4286154,60.9529744 24.5769615,46.0436026 C24.9554744,46.1661538 25.3339872,46.2809487 25.7062949,46.4066026 C37.4898333,50.3639231 47.5219744,50.7610513 55.9175128,49.0065513 C54.9727821,48.4077564 54.1521538,47.7096795 53.4913077,46.9355897 C44.4426795,47.7484615 33.9932436,45.9210513 21.9320256,41.3587308 C21.5054231,41.1973974 21.0772692,41.0329615 20.6475641,40.8669744 C23.6725641,65.6595641 14.2159487,76.1245128 9.37439744,83.440359 C20.5234615,83.7552692 32.1487692,91.910359 35.9447564,96.3284103 C56.1021154,76.884641 79.326359,69.0475641 110.648295,73.8580897 C100.363295,58.8742564 106.726654,43.5398333 111.155564,35.6531154" id="Fill-12" fill="#FFFFFE"></path>
                    <path d="M80.3021154,30.9884103 C78.7554872,35.5259103 75.6699872,39.9718846 70.3459872,42.883641 C65.0235385,45.7953974 59.6157692,45.9939615 54.9603718,44.8506667 C54.6904487,44.780859 54.2948718,44.9949359 54.6516667,45.4618718 C57.4594872,49.126 65.5044359,51.5103205 72.9257692,47.5979872 C80.2214487,43.4591667 82.5576795,35.4002564 80.9846795,31.0582179 C80.7845641,30.5075128 80.3905385,30.723141 80.3021154,30.9884103" id="Fill-13" fill="#6BB64A"></path>
                    <path d="M80.8078333,27.0202308 C79.4023718,26.609141 79.2518974,28.0844103 76.8675769,26.9426667 L76.8675769,26.9442179 C72.7613333,24.9322051 66.8276795,25.2269487 62.0605897,27.7353718 C57.3772692,30.3958205 53.9287692,35.2358205 53.4075385,39.7748718 L53.4059872,39.7748718 C53.0802179,42.4011923 51.7585256,41.7294872 51.3474359,43.1349487 C51.0588974,44.115359 51.8453974,45.0337179 52.7994359,45.1159359 C53.3315256,45.1609231 53.6340256,44.6412436 52.8382179,44.4054487 C52.2673462,44.1277692 52.2052949,43.5894744 53.0445385,43.7895897 C59.2698333,45.2757179 64.300641,44.8351538 69.7766667,41.8411795 C75.2526923,38.8441026 78.3350897,34.8464487 80.4417308,28.8042051 C80.7240641,27.9913333 81.1475641,28.3310641 81.0731026,28.9624359 C80.8419615,29.7582436 81.4407564,29.7861667 81.6920641,29.3114744 C82.1388333,28.4644744 81.7882436,27.3072179 80.8078333,27.0202308" id="Fill-14" fill="#F8CD24"></path>
                </g>
            </g>
        </g>
    </g>
</svg>